<?xml version="1.0" encoding="utf-8"?>
<!-- Generator: Adobe Illustrator 16.0.0, SVG Export Plug-In . SVG Version: 6.00 Build 0)  -->
<!DOCTYPE svg PUBLIC "-//W3C//DTD SVG 1.1//EN" "http://www.w3.org/Graphics/SVG/1.1/DTD/svg11.dtd">
<svg version="1.1" id="Layer_1" xmlns="http://www.w3.org/2000/svg" xmlns:xlink="http://www.w3.org/1999/xlink" x="0px" y="0px"
	 width="641.176px" height="236.602px" viewBox="0 0 641.176 236.602" enable-background="new 0 0 641.176 236.602"
	 xml:space="preserve">
<g>
	
		<rect x="623.102" y="146.331" fill="none" stroke="#00CCFF" stroke-width="1.616" stroke-miterlimit="10" width="4.306" height="3.921"/>
	
		<rect x="504.211" y="153.667" fill="none" stroke="#00CCFF" stroke-width="1.616" stroke-miterlimit="10" width="2.54" height="2.313"/>
	
		<line fill="none" stroke="#00CCFF" stroke-width="1.616" stroke-miterlimit="10" x1="126.993" y1="15.219" x2="126.993" y2="154.826"/>
	
		<line fill="none" stroke="#00CCFF" stroke-width="1.616" stroke-miterlimit="10" x1="449.289" y1="77.872" x2="449.289" y2="209.659"/>
	<polyline fill="none" stroke="#00CCFF" stroke-width="1.616" stroke-miterlimit="10" points="62.411,154.821 123.267,154.821 
		123.267,95.848 	"/>
	<polyline fill="none" stroke="#00CCFF" stroke-width="1.616" stroke-miterlimit="10" points="105.351,84.664 60.439,84.664 
		60.439,124.309 72.33,133.239 72.33,148.068 100.717,148.068 	"/>
	<polyline fill="none" stroke="#00CCFF" stroke-width="1.616" stroke-miterlimit="10" points="385.721,77.872 444.95,77.872 
		444.95,111.005 	"/>
	<polyline fill="none" stroke="#00CCFF" stroke-width="1.616" stroke-miterlimit="10" points="385.721,154.826 415.878,154.826 
		415.878,110.011 	"/>
	<polyline fill="none" stroke="#00CCFF" stroke-width="1.616" stroke-miterlimit="10" points="432.933,154.826 444.95,154.826 
		444.95,187.337 	"/>
	
		<line fill="none" stroke="#00CCFF" stroke-width="1.616" stroke-miterlimit="10" x1="421.769" y1="110.011" x2="421.769" y2="150.241"/>
	<polyline fill="none" stroke="#00CCFF" stroke-width="1.616" stroke-miterlimit="10" points="385.721,140.018 385.721,81.988 
		411.266,81.988 416.178,86.898 438.941,86.898 	"/>
	<polyline fill="none" stroke="#00CCFF" stroke-width="1.616" stroke-miterlimit="10" points="351.133,77.872 313.744,77.872 
		313.744,116.351 	"/>
	
		<line fill="none" stroke="#00CCFF" stroke-width="1.616" stroke-miterlimit="10" x1="315.738" y1="80.321" x2="315.738" y2="102.317"/>
	<polyline fill="none" stroke="#00CCFF" stroke-width="1.616" stroke-miterlimit="10" points="355.787,154.826 377.667,154.826 
		377.667,77.872 366.727,77.872 	"/>
	<polyline fill="none" stroke="#00CCFF" stroke-width="1.616" stroke-miterlimit="10" points="355.787,46.835 355.787,106.913 
		349.096,113.602 349.096,132.418 313.744,132.418 313.744,124.971 	"/>
	<polyline fill="none" stroke="#00CCFF" stroke-width="1.616" stroke-miterlimit="10" points="350.863,175.021 350.863,159.763 
		350.863,154.826 313.744,154.826 313.744,137.821 344.297,137.821 	"/>
	<polyline fill="none" stroke="#00CCFF" stroke-width="1.616" stroke-miterlimit="10" points="352.953,134.371 352.953,137.821 
		352.953,150.241 	"/>
	<line fill="none" stroke="#00CCFF" stroke-width="1.616" stroke-miterlimit="10" x1="359.4" y1="106.585" x2="359.4" y2="68.501"/>
	<path fill="none" stroke="#00CCFF" stroke-width="1.616" stroke-miterlimit="10" d="M299.703,103.381"/>
	<polyline fill="none" stroke="#00CCFF" stroke-width="1.616" stroke-miterlimit="10" points="297.438,145.612 297.438,154.821 
		279.955,154.821 	"/>
	<polyline fill="none" stroke="#00CCFF" stroke-width="1.616" stroke-miterlimit="10" points="280.984,140.018 280.984,106.832 
		306.193,106.832 306.193,132.418 306.193,140.018 300.6,145.612 300.6,160.732 	"/>
	<polyline fill="none" stroke="#00CCFF" stroke-width="1.616" stroke-miterlimit="10" points="282.913,55.702 282.913,74.74 
		305.695,74.74 305.695,95.848 	"/>
	<line fill="none" stroke="#00CCFF" stroke-width="1.616" stroke-miterlimit="10" x1="285.829" y1="60.79" x2="285.829" y2="70.8"/>
	<polyline fill="none" stroke="#00CCFF" stroke-width="1.616" stroke-miterlimit="10" points="209.181,125.428 237.794,125.428 
		237.794,102.495 272.746,102.495 272.746,92.644 267.948,87.85 267.948,77.872 214.957,77.872 	"/>
	<polyline fill="none" stroke="#00CCFF" stroke-width="1.616" stroke-miterlimit="10" points="209.181,128.872 241.242,128.872 
		241.242,105.941 272.746,105.941 272.746,113.596 272.746,127.262 267.216,132.792 267.216,148.198 	"/>
	<polyline fill="none" stroke="#00CCFF" stroke-width="1.616" stroke-miterlimit="10" points="272.746,154.826 214.957,154.821 
		214.957,137.821 	"/>
	<polyline fill="none" stroke="#00CCFF" stroke-width="1.616" stroke-miterlimit="10" points="209.181,81.988 209.181,118.73 
		214.957,118.73 	"/>
	<polyline fill="none" stroke="#00CCFF" stroke-width="1.616" stroke-miterlimit="10" points="209.181,140.071 209.181,150.888 
		209.181,158.777 239.906,158.777 	"/>
	<polyline fill="none" stroke="#00CCFF" stroke-width="1.616" stroke-miterlimit="10" points="135.988,157.135 199.756,157.135 
		199.756,148.068 	"/>
	<polyline fill="none" stroke="#00CCFF" stroke-width="1.616" stroke-miterlimit="10" points="162.881,129.716 162.881,129.804 
		199.553,129.804 199.553,142.31 	"/>
	
		<line fill="none" stroke="#00CCFF" stroke-width="1.616" stroke-miterlimit="10" x1="135.696" y1="77.872" x2="135.988" y2="142.31"/>
	
		<line fill="none" stroke="#00CCFF" stroke-width="1.616" stroke-miterlimit="10" x1="140.767" y1="154.821" x2="184.428" y2="154.821"/>
	<polyline fill="none" stroke="#00CCFF" stroke-width="1.616" stroke-miterlimit="10" points="168.362,168.259 125.997,168.242 
		118.5,160.737 107.641,160.732 194.628,160.774 	"/>
	<polyline fill="none" stroke="#00CCFF" stroke-width="1.616" stroke-miterlimit="10" points="166.328,126.363 198.214,126.363 
		199.553,126.363 199.553,113.64 199.553,87.542 	"/>
	<polyline fill="none" stroke="#00CCFF" stroke-width="1.616" stroke-miterlimit="10" points="199.553,79.844 169.982,79.844 
		162.895,82.993 140.767,82.993 	"/>
	
		<line fill="none" stroke="#00CCFF" stroke-width="1.616" stroke-miterlimit="10" x1="140.767" y1="77.872" x2="162.598" y2="77.872"/>
	<polyline fill="none" stroke="#00CCFF" stroke-width="1.616" stroke-miterlimit="10" points="210.689,74.74 272.746,74.74 
		272.746,65.792 	"/>
	
		<line fill="none" stroke="#00CCFF" stroke-width="1.616" stroke-miterlimit="10" x1="132.561" y1="60.79" x2="132.561" y2="150.241"/>
	<polyline fill="none" stroke="#00CCFF" stroke-width="1.616" stroke-miterlimit="10" points="186.07,74.74 202.481,74.74 
		202.481,116.351 	"/>
	<polyline fill="none" stroke="#00CCFF" stroke-width="1.616" stroke-miterlimit="10" points="123.267,46.835 123.267,74.74 
		107.641,74.74 102.776,79.602 18.648,79.602 	"/>
	<polyline fill="none" stroke="#00CCFF" stroke-width="1.616" stroke-miterlimit="10" points="105.351,120.861 86.752,120.861 
		86.752,124.309 	"/>
	
		<line fill="none" stroke="#00CCFF" stroke-width="1.616" stroke-miterlimit="10" x1="62.411" y1="134.371" x2="62.411" y2="150.241"/>
	
		<rect x="101.045" y="146.322" fill="none" stroke="#00CCFF" stroke-width="1.616" stroke-miterlimit="10" width="4.305" height="3.919"/>
	
		<rect x="168.573" y="166.302" fill="none" stroke="#00CCFF" stroke-width="1.616" stroke-miterlimit="10" width="4.303" height="3.918"/>
	
		<rect x="14.526" y="77.641" fill="none" stroke="#00CCFF" stroke-width="1.616" stroke-miterlimit="10" width="4.303" height="3.923"/>
	
		<rect x="281.304" y="53.263" fill="none" stroke="#00CCFF" stroke-width="1.616" stroke-miterlimit="10" width="3.211" height="2.923"/>
	
		<rect x="348.708" y="175.021" fill="none" stroke="#00CCFF" stroke-width="1.616" stroke-miterlimit="10" width="4.308" height="3.918"/>
	
		<rect x="299.33" y="161.185" fill="none" stroke="#00CCFF" stroke-width="1.616" stroke-miterlimit="10" width="2.54" height="2.318"/>
	
		<rect x="443.681" y="187.164" fill="none" stroke="#00CCFF" stroke-width="1.616" stroke-miterlimit="10" width="2.541" height="2.315"/>
	
		<rect x="445.865" y="63.651" fill="none" stroke="#00CCFF" stroke-width="1.616" stroke-miterlimit="10" width="2.543" height="2.32"/>
	
		<rect x="27.763" y="83.503" fill="none" stroke="#00CCFF" stroke-width="1.616" stroke-miterlimit="10" width="2.537" height="2.315"/>
	
		<rect x="354.802" y="44.694" fill="none" stroke="#00CCFF" stroke-width="1.616" stroke-miterlimit="10" width="2.542" height="2.317"/>
	
		<rect x="447.138" y="209.659" fill="none" stroke="#00CCFF" stroke-width="1.616" stroke-miterlimit="10" width="4.302" height="3.918"/>
	<polyline fill="none" stroke="#00CCFF" stroke-width="1.616" stroke-miterlimit="10" points="385.721,74.74 447.138,74.74 
		447.138,65.792 	"/>
	
		<line fill="none" stroke="#00CCFF" stroke-width="1.616" stroke-miterlimit="10" x1="385.721" y1="160.732" x2="385.721" y2="171.375"/>
	<polyline fill="none" stroke="#00CCFF" stroke-width="1.616" stroke-miterlimit="10" points="390.256,178.939 390.256,158.777 
		415.878,158.76 	"/>
	<polyline fill="none" stroke="#00CCFF" stroke-width="1.616" stroke-miterlimit="10" points="239.906,162.524 264.854,162.524 
		264.854,175.015 	"/>
	<polyline fill="none" stroke="#00CCFF" stroke-width="1.616" stroke-miterlimit="10" points="339.702,70.8 352.953,70.8 
		352.953,55.372 	"/>
	<polyline fill="none" stroke="#00CCFF" stroke-width="1.616" stroke-miterlimit="10" points="57.385,123.456 57.385,158.76 
		73.471,158.76 	"/>
	<polyline fill="none" stroke="#00CCFF" stroke-width="1.616" stroke-miterlimit="10" points="303.239,103.381 280.984,103.381 
		280.984,100.36 280.984,77.872 294.303,77.872 	"/>
	<path fill="none" stroke="#00CCFF" stroke-width="1.616" stroke-miterlimit="10" d="M63.951,87.542v14.774V87.542z"/>
	
		<line fill="none" stroke="#00CCFF" stroke-width="1.616" stroke-miterlimit="10" x1="123.267" y1="87.542" x2="63.951" y2="87.542"/>
	<polyline fill="none" stroke="#00CCFF" stroke-width="1.616" stroke-miterlimit="10" points="57.385,105.941 57.385,84.664 
		30.3,84.664 	"/>
	<polyline fill="none" stroke="#00CCFF" stroke-width="1.616" stroke-miterlimit="10" points="453.411,166.054 453.411,154.821 
		504.496,154.821 	"/>
	
		<line fill="none" stroke="#00CCFF" stroke-width="1.616" stroke-miterlimit="10" x1="313.744" y1="158.777" x2="346.327" y2="158.777"/>
	<line fill="none" stroke="#00CCFF" stroke-width="1.616" stroke-miterlimit="10" x1="443.681" y1="70.8" x2="427.188" y2="70.8"/>
	<polyline fill="none" stroke="#00CCFF" stroke-width="1.616" stroke-miterlimit="10" points="454.269,132.098 454.269,148.293 
		623.102,148.293 	"/>
	
		<rect x="153.898" y="105.941" fill="none" stroke="#00CCFF" stroke-width="1.616" stroke-miterlimit="10" width="26.097" height="4.07"/>
	
		<line fill="none" stroke="#00CCFF" stroke-width="1.616" stroke-miterlimit="10" x1="162.881" y1="129.804" x2="162.881" y2="126.363"/>
	
		<rect x="63.705" y="87.357" fill="none" stroke="#00CCFF" stroke-width="1.616" stroke-miterlimit="10" width="0.493" height="0.368"/>
</g>
<g>
	<path fill="#4D4D4D" d="M469.484,125.041c0.216-0.025,0.465-0.049,0.746-0.072c0.282-0.023,0.576-0.043,0.879-0.059
		c0.306-0.018,0.614-0.029,0.93-0.039c0.314-0.01,0.619-0.016,0.913-0.016c0.768,0,1.463,0.096,2.09,0.289
		c0.625,0.195,1.161,0.488,1.607,0.881c0.445,0.393,0.788,0.887,1.03,1.482s0.363,1.295,0.363,2.094
		c0,0.807-0.111,1.549-0.333,2.227c-0.223,0.678-0.558,1.26-1.002,1.744c-0.446,0.484-0.999,0.863-1.662,1.135
		c-0.661,0.271-1.431,0.408-2.31,0.408c-0.583,0-1.161-0.018-1.739-0.049c-0.575-0.033-1.081-0.072-1.513-0.119V125.041z
		 M470.85,134.289c0.202,0.033,0.431,0.061,0.683,0.084s0.539,0.035,0.859,0.035c0.637,0.006,1.206-0.045,1.71-0.152
		c0.506-0.109,0.918-0.277,1.238-0.508c0.158-0.111,0.313-0.262,0.467-0.457c0.155-0.193,0.291-0.445,0.408-0.762
		c0.118-0.313,0.215-0.697,0.29-1.148s0.112-0.992,0.112-1.621c0-0.781-0.114-1.438-0.343-1.971
		c-0.229-0.535-0.534-0.965-0.915-1.293c-0.379-0.328-0.818-0.561-1.315-0.703c-0.499-0.141-1.013-0.211-1.544-0.211
		c-0.229,0-0.42,0.004-0.575,0.01c-0.154,0.008-0.289,0.016-0.406,0.025c-0.118,0.01-0.229,0.02-0.33,0.035
		c-0.102,0.012-0.215,0.025-0.339,0.039V134.289z"/>
	<path fill="#4D4D4D" d="M485.61,135.025h-5.375v-10.063h5.159l-0.099,0.729l-3.694,0.049v3.566l3.479,0.039l-0.1,0.639
		l-3.379,0.078v4.188l4.106,0.078L485.61,135.025z"/>
	<path fill="#4D4D4D" d="M493.04,132.107c0,0.381-0.075,0.752-0.226,1.115c-0.152,0.363-0.372,0.689-0.663,0.979
		c-0.293,0.287-0.649,0.52-1.072,0.697s-0.906,0.266-1.449,0.266c-0.571,0-1.079-0.066-1.527-0.197
		c-0.45-0.131-0.871-0.309-1.264-0.529l0.491-1.18c0.144,0.098,0.318,0.201,0.521,0.309c0.202,0.109,0.419,0.209,0.647,0.301
		c0.229,0.092,0.467,0.168,0.713,0.23c0.245,0.063,0.483,0.094,0.714,0.094c0.314,0,0.583-0.029,0.811-0.09
		c0.226-0.057,0.41-0.131,0.554-0.215c0.078-0.047,0.155-0.102,0.228-0.168c0.071-0.064,0.135-0.152,0.19-0.266
		c0.056-0.111,0.101-0.25,0.133-0.416c0.033-0.168,0.05-0.369,0.05-0.605c0-0.309-0.068-0.568-0.202-0.781
		c-0.135-0.213-0.312-0.395-0.536-0.545c-0.222-0.15-0.475-0.283-0.756-0.398s-0.568-0.232-0.859-0.354
		c-0.293-0.121-0.578-0.256-0.859-0.402c-0.283-0.148-0.535-0.332-0.758-0.551s-0.401-0.482-0.536-0.791
		c-0.133-0.309-0.201-0.686-0.201-1.131c0-0.307,0.071-0.617,0.216-0.928c0.146-0.311,0.353-0.594,0.624-0.846
		c0.273-0.252,0.606-0.459,1.003-0.619c0.396-0.16,0.847-0.24,1.352-0.24c0.405,0,0.787,0.023,1.141,0.068
		c0.353,0.047,0.706,0.105,1.06,0.178l-0.305,1.189c-0.373-0.133-0.762-0.246-1.169-0.34c-0.406-0.096-0.785-0.143-1.139-0.143
		c-0.276,0-0.519,0.02-0.729,0.059c-0.209,0.039-0.369,0.098-0.48,0.178c-0.119,0.09-0.221,0.225-0.306,0.396
		c-0.085,0.174-0.127,0.438-0.127,0.791c0,0.283,0.067,0.52,0.201,0.713s0.313,0.363,0.534,0.506
		c0.225,0.145,0.477,0.273,0.758,0.389s0.57,0.232,0.865,0.354c0.294,0.121,0.582,0.26,0.863,0.414
		c0.283,0.152,0.535,0.342,0.758,0.564s0.401,0.49,0.536,0.807C492.972,131.281,493.04,131.662,493.04,132.107z"/>
	<path fill="#4D4D4D" d="M494.975,135.025v-10.063h1.366v10.063H494.975z"/>
	<path fill="#4D4D4D" d="M505.175,130.849l-2.24-0.117l0.107-0.521h3.46v4.107c-0.211,0.1-0.468,0.197-0.777,0.295
		c-0.307,0.098-0.641,0.188-1.002,0.271c-0.36,0.082-0.733,0.148-1.119,0.201c-0.388,0.051-0.761,0.078-1.12,0.078
		c-0.727,0-1.344-0.127-1.849-0.379c-0.504-0.252-0.916-0.609-1.233-1.07c-0.316-0.463-0.548-1.016-0.692-1.656
		c-0.144-0.643-0.216-1.357-0.216-2.143s0.101-1.492,0.299-2.117c0.199-0.627,0.502-1.158,0.904-1.598
		c0.404-0.439,0.909-0.773,1.519-1.008c0.609-0.232,1.324-0.348,2.142-0.348c0.204,0,0.432,0.008,0.685,0.025
		c0.252,0.016,0.5,0.037,0.746,0.063c0.245,0.027,0.478,0.057,0.698,0.088c0.22,0.033,0.4,0.063,0.546,0.09l-0.354,1.17
		c-0.171-0.053-0.386-0.107-0.645-0.162c-0.259-0.057-0.53-0.105-0.814-0.148c-0.286-0.043-0.57-0.078-0.855-0.107
		c-0.284-0.031-0.539-0.045-0.762-0.045c-0.366,0-0.712,0.029-1.038,0.088c-0.323,0.059-0.622,0.199-0.898,0.424
		c-0.15,0.117-0.271,0.305-0.363,0.559c-0.092,0.256-0.164,0.547-0.216,0.875c-0.053,0.328-0.089,0.678-0.108,1.051
		c-0.02,0.375-0.029,0.74-0.029,1.102c0,0.662,0.046,1.266,0.138,1.813c0.092,0.549,0.239,1.018,0.441,1.41
		c0.203,0.393,0.467,0.699,0.791,0.916c0.325,0.215,0.723,0.322,1.194,0.322c0.224,0,0.459-0.008,0.707-0.023
		c0.249-0.016,0.493-0.039,0.732-0.064c0.238-0.027,0.466-0.055,0.679-0.088s0.396-0.066,0.545-0.1V130.849z"/>
	<path fill="#4D4D4D" d="M516.8,135.076l-7.104-7.844h-0.029c0.013,0.742,0.026,1.416,0.039,2.025
		c0.007,0.262,0.013,0.521,0.016,0.781s0.005,0.496,0.01,0.713c0.004,0.217,0.007,0.402,0.01,0.561
		c0.003,0.156,0.005,0.266,0.005,0.324v3.389h-0.905v-10.131h0.601l7.114,7.822h0.01c-0.014-0.688-0.021-1.326-0.029-1.916
		c0-0.25-0.001-0.502-0.004-0.758c-0.004-0.254-0.008-0.494-0.011-0.721s-0.005-0.428-0.005-0.605c0-0.176,0-0.314,0-0.412v-3.332
		h0.903v10.104H516.8z"/>
	<path fill="#4D4D4D" d="M529.262,135.025l-1.258-3.684l-3.872,0.049l-1.356,3.635h-1.001l3.988-9.975l1.18-0.344l3.733,10.318
		H529.262z M527.797,130.681l-1.67-4.697l-1.75,4.697H527.797z M527.394,121.003l0.846,0.814l-2.517,2.191l-0.51-0.451
		L527.394,121.003z"/>
	<path fill="#4D4D4D" d="M535.031,135.025v-10.063h1.365v9.297h3.822l-0.098,0.766H535.031z"/>
	<path fill="#4D4D4D" d="M548.384,135.025l-1.257-3.684l-3.872,0.049l-1.356,3.635h-1.003l3.991-9.975l1.18-0.344l3.733,10.318
		H548.384z M546.921,130.681l-1.671-4.697l-1.749,4.697H546.921z"/>
	<path fill="#4D4D4D" d="M557.819,135.164c-0.727,0-1.344-0.125-1.847-0.373c-0.506-0.25-0.915-0.6-1.234-1.053
		c-0.317-0.451-0.549-0.996-0.693-1.637c-0.144-0.639-0.216-1.35-0.216-2.137c0-0.957,0.138-1.76,0.414-2.412
		c0.274-0.652,0.634-1.18,1.075-1.582c0.442-0.404,0.938-0.691,1.488-0.865c0.551-0.174,1.103-0.26,1.652-0.26
		c0.202,0,0.429,0.006,0.677,0.02c0.249,0.014,0.492,0.029,0.728,0.049c0.236,0.02,0.456,0.041,0.664,0.064
		c0.206,0.023,0.367,0.047,0.486,0.072l-0.364,1.199c-0.131-0.039-0.313-0.084-0.55-0.137s-0.49-0.1-0.762-0.143
		s-0.539-0.078-0.801-0.107c-0.262-0.031-0.482-0.045-0.659-0.045c-0.393,0-0.729,0.031-1.013,0.094
		c-0.281,0.063-0.541,0.188-0.785,0.379c-0.295,0.229-0.5,0.66-0.618,1.295c-0.119,0.637-0.177,1.43-0.177,2.379
		c0,1.447,0.21,2.547,0.632,3.297c0.424,0.75,1.104,1.125,2.04,1.125c0.263,0,0.534-0.01,0.816-0.029
		c0.281-0.02,0.562-0.049,0.84-0.088c0.277-0.039,0.552-0.088,0.82-0.148c0.268-0.057,0.521-0.127,0.757-0.205v0.521
		c-0.242,0.117-0.503,0.221-0.781,0.309c-0.277,0.088-0.563,0.164-0.855,0.227c-0.291,0.063-0.584,0.109-0.879,0.143
		C558.379,135.146,558.095,135.164,557.819,135.164z"/>
	<path fill="#4D4D4D" d="M572.304,129.955c0,0.799-0.103,1.52-0.311,2.162c-0.205,0.643-0.511,1.189-0.918,1.641
		c-0.406,0.453-0.915,0.801-1.529,1.043c-0.611,0.242-1.324,0.363-2.137,0.363c-0.824,0-1.536-0.125-2.132-0.373
		c-0.597-0.25-1.085-0.602-1.464-1.057c-0.381-0.455-0.66-1.002-0.84-1.643c-0.18-0.639-0.271-1.35-0.271-2.137
		c0-0.785,0.092-1.492,0.277-2.123c0.182-0.629,0.466-1.164,0.854-1.605c0.387-0.443,0.877-0.781,1.474-1.018
		c0.596-0.236,1.304-0.354,2.122-0.354c0.813,0,1.524,0.117,2.134,0.354s1.117,0.574,1.522,1.018
		c0.405,0.441,0.712,0.977,0.914,1.605C572.203,128.462,572.304,129.169,572.304,129.955z M570.84,129.955
		c0-0.641-0.065-1.229-0.196-1.758c-0.132-0.531-0.337-0.986-0.615-1.367c-0.277-0.379-0.631-0.674-1.061-0.885
		c-0.43-0.209-0.942-0.313-1.539-0.313c-0.518,0-0.998,0.055-1.444,0.166c-0.445,0.111-0.799,0.277-1.061,0.502
		c-0.146,0.123-0.267,0.307-0.364,0.549c-0.099,0.242-0.177,0.525-0.235,0.852c-0.06,0.322-0.102,0.678-0.128,1.061
		s-0.039,0.781-0.039,1.193c0,0.637,0.055,1.225,0.162,1.764c0.108,0.541,0.286,1.008,0.536,1.4c0.248,0.393,0.58,0.701,0.997,0.926
		c0.416,0.221,0.935,0.332,1.557,0.332c0.597,0,1.104-0.053,1.519-0.162c0.416-0.107,0.788-0.303,1.115-0.584
		c0.146-0.119,0.267-0.303,0.364-0.555c0.099-0.254,0.181-0.545,0.245-0.875c0.066-0.33,0.114-0.689,0.144-1.076
		S570.84,130.347,570.84,129.955z"/>
	<path fill="#4D4D4D" d="M574.497,125.041c0.216-0.025,0.464-0.049,0.747-0.072c0.281-0.023,0.575-0.043,0.879-0.059
		c0.305-0.018,0.614-0.029,0.929-0.039c0.313-0.01,0.618-0.016,0.913-0.016c0.767,0,1.463,0.096,2.088,0.289
		c0.627,0.195,1.162,0.488,1.606,0.881c0.447,0.393,0.791,0.887,1.033,1.482c0.241,0.596,0.363,1.295,0.363,2.094
		c0,0.807-0.111,1.549-0.335,2.227c-0.222,0.678-0.556,1.26-1.002,1.744c-0.444,0.484-0.998,0.863-1.66,1.135
		c-0.661,0.271-1.432,0.408-2.31,0.408c-0.583,0-1.163-0.018-1.739-0.049c-0.576-0.033-1.081-0.072-1.513-0.119V125.041z
		 M575.862,134.289c0.203,0.033,0.431,0.061,0.684,0.084c0.251,0.023,0.538,0.035,0.859,0.035c0.636,0.006,1.205-0.045,1.709-0.152
		c0.504-0.109,0.918-0.277,1.239-0.508c0.158-0.111,0.313-0.262,0.467-0.457c0.153-0.193,0.289-0.445,0.407-0.762
		c0.118-0.313,0.216-0.697,0.289-1.148c0.075-0.451,0.114-0.992,0.114-1.621c0-0.781-0.115-1.438-0.345-1.971
		c-0.229-0.535-0.534-0.965-0.913-1.293c-0.38-0.328-0.818-0.561-1.317-0.703c-0.497-0.141-1.011-0.211-1.542-0.211
		c-0.229,0-0.422,0.004-0.575,0.01c-0.154,0.008-0.291,0.016-0.409,0.025c-0.117,0.01-0.227,0.02-0.329,0.035
		c-0.1,0.012-0.213,0.025-0.338,0.039V134.289z"/>
	<path fill="#4D4D4D" d="M590.622,135.025h-5.375v-10.063h5.159l-0.098,0.729l-3.695,0.049v3.566l3.478,0.039l-0.097,0.639
		l-3.381,0.078v4.188l4.107,0.078L590.622,135.025z"/>
</g>
</svg>
